<?xml version="1.0" encoding="utf-8"?>
<!-- Generator: Adobe Illustrator 16.0.0, SVG Export Plug-In . SVG Version: 6.00 Build 0)  -->
<!DOCTYPE svg PUBLIC "-//W3C//DTD SVG 1.1//EN" "http://www.w3.org/Graphics/SVG/1.1/DTD/svg11.dtd">
<svg version="1.1" id="Calque_1" xmlns="http://www.w3.org/2000/svg" xmlns:xlink="http://www.w3.org/1999/xlink" x="0px" y="0px"
	 width="25px" height="25px" viewBox="0 0 25 25" enable-background="new 0 0 25 25" xml:space="preserve">
<path fill="#343434" d="M12.5,0C5.583,0,0,5.583,0,12.501C0,19.416,5.583,25,12.5,25C19.416,25,25,19.416,25,12.501C25,5.583,19.416,0,12.5,0z
	 M12.5,23.916c-6.277,0-11.417-5.139-11.417-11.415c0-6.279,5.14-11.418,11.417-11.418s11.418,5.111,11.418,11.418
	C23.918,18.777,18.777,23.916,12.5,23.916z M20.777,12.501l-4.582,4.665l-0.777-0.777l3.805-3.888l-3.889-3.89l0.777-0.777
	L20.777,12.501z M9.666,8.611l-3.889,3.89l3.806,3.888l-0.777,0.777l-4.583-4.665l4.667-4.667L9.666,8.611z M13.166,6.75
	l1.057,0.222L11.806,18.25l-1.056-0.223L13.166,6.75z"/>
</svg>
